<?xml version="1.0" encoding="UTF-8"?>
<svg id="Livello_1" data-name="Livello 1" xmlns="http://www.w3.org/2000/svg" viewBox="0 0 1427.93 921.16">
  <defs>
    <style>
      .cls-1 {
        fill: #0c2b30;
      }
    </style>
  </defs>
  <path class="cls-1" d="M669.78,812.85c-4.83,4.24-13.77,11.23-18.8,15.32-9.39,6.5-11.52,7.28-25.71,16.03-.03,0-.05.02-.07.03-.37.17-.75.36-1.11.56-.99.53-1.96,1.15-2.96,1.84-74.73,45.54-164.02,83.78-252.78,69.91,43.16-4.58,82-17.28,116.77-39.18,9.45-5.35,18.84-11.76,28.03-19.11,19.69-15.75,38.44-35.88,54.9-59.63,38.61-56.56,75.77-159.37,84.58-202.26.13-.68.27-1.35.4-2.01.06-.33.12-.64.18-.97,2.24-11.99,4.18-24.37,5.78-37.06C686.33,339.87,617.84,31.25,363.63,13.18c-52.55-3.73-110.54-4.91-160.53,3.44-1.72,19.42.3,836.32-.6,875.37,0,19.02-9.8,28.54-29.41,28.54-10.29-2.23-169.36,5.13-173.09-4.44,30.75-11.67,56.53-19.08,57.2-64.59,1.13-17.2-.77-726.18.15-769.13,0-43.75-9.31-56.32-51.29-69.18C-3.06,11.66-.35,3.86,7.23,4.18,298.46-.81,680.1-42.64,798.52,298.49c70.96,187.99,18.19,385.21-128.73,514.37h-.01Z"/>
  <path class="cls-1" d="M1005.81.74c-50.04,16.42-87.03,50.05-118.92,89.53-35.31,43.72-57.02,94.67-73.25,148.06-3.66,12.05-6.76,24.26-9.97,36.45-17.28-43.28-39.09-79.93-64.61-110.91.33-.6.71-1.18,1.17-1.77,49.16-63.4,105.04-118.61,182.16-147.34,26.61-9.91,54.2-15.79,83.4-14.02h.02Z"/>
  <path class="cls-1" d="M1427.93,112.6V3.46c-.78-1.78-2.38-3-5.71-3.02-30.86-.14-61.73-.06-92.6-.06-.04.08-.08.15-.12.23,23.68,8.31,51.59,31.9,74.05,65.05,10.64,15.69,18.82,31.73,24.38,46.94h0Z"/>
  <path class="cls-1" d="M1005.55,915.66c-29.2,1.78-56.79-4.11-83.4-14.02-77.12-28.73-133.01-83.94-182.16-147.34-.38-.5-.71-.99-1.01-1.48,26.96-32.93,48.96-68.74,65.66-106.56,2.79,10.65,5.55,21.3,8.75,31.83,16.24,53.37,37.94,104.33,73.25,148.05,31.89,39.48,68.87,73.11,118.92,89.53h-.01Z"/>
  <path class="cls-1" d="M1427.67,803.81v109.14c-.78,1.78-2.38,3-5.71,3.02-30.86.14-61.73.06-92.6.06-.04-.08-.08-.15-.12-.23,23.68-8.31,51.59-31.9,74.05-65.05,10.64-15.69,18.82-31.73,24.38-46.94h0Z"/>
</svg>